<?xml version="1.0" encoding="UTF-8" standalone="no"?>
<svg
   xmlns:dc="http://purl.org/dc/elements/1.1/"
   xmlns:cc="http://creativecommons.org/ns#"
   xmlns:rdf="http://www.w3.org/1999/02/22-rdf-syntax-ns#"
   xmlns:svg="http://www.w3.org/2000/svg"
   xmlns="http://www.w3.org/2000/svg"
   xmlns:sodipodi="http://sodipodi.sourceforge.net/DTD/sodipodi-0.dtd"
   xmlns:inkscape="http://www.inkscape.org/namespaces/inkscape"
   width="6600"
   height="1000"
   viewBox="0 0 6599.5602 999.6855"
   version="1.1"
   inkscape:version="0.91+devel r"
   id="svg2"
   sodipodi:docname="satellid-logo.svg"
   inkscape:export-filename="/home/mhaidarh/all/repo/hazeorid/satellid-base/identity/brand/assets/satellid-logo.png"
   inkscape:export-xdpi="96"
   inkscape:export-ydpi="96">
  <sodipodi:namedview
     pagecolor="#ffffff"
     bordercolor="#666666"
     borderopacity="1"
     objecttolerance="10"
     gridtolerance="10"
     guidetolerance="10"
     inkscape:pageopacity="0"
     inkscape:pageshadow="2"
     inkscape:window-width="1366"
     inkscape:window-height="744"
     id="namedview50"
     showgrid="false"
     inkscape:zoom="0.12344555"
     inkscape:cx="3479.8067"
     inkscape:cy="-434.58276"
     inkscape:window-x="19"
     inkscape:window-y="792"
     inkscape:window-maximized="1"
     inkscape:current-layer="text4178"
     inkscape:snap-bbox="true"
     inkscape:object-paths="true"
     inkscape:snap-intersection-paths="true"
     inkscape:object-nodes="true"
     inkscape:snap-midpoints="true"
     inkscape:snap-smooth-nodes="true" />
  <style
     id="style4">.style0{fill:	none;fill-rule:	evenodd;}.style1{fill:	#de4f4f;}.style2{fill:	#fff;}</style>
  <style
     id="style6">.style0{fill:	none;fill-rule:	evenodd;}.style1{fill:	#de4f4f;}.style2{fill:	#fff;}</style>
  <metadata
     id="metadata8">
    <rdf:RDF>
      <cc:Work
         rdf:about="">
        <dc:format>image/svg+xml</dc:format>
        <dc:type
           rdf:resource="http://purl.org/dc/dcmitype/StillImage" />
        <dc:title>meteor-logo</dc:title>
      </cc:Work>
    </rdf:RDF>
  </metadata>
  <!-- Generator: Sketch 3.1.1 (8761) - http://www.bohemiancoding.com/sketch -->
  <title
     id="title10">Meteor Logo</title>
  <desc
     id="desc12">Created with Sketch.</desc>
  <defs
     id="defs14" />
  <g
     style="font-style:normal;font-weight:normal;font-size:125.68994904px;line-height:125%;font-family:Sans;letter-spacing:0px;word-spacing:0px;fill:#0064ff;fill-opacity:1;stroke:none;stroke-width:1px;stroke-linecap:butt;stroke-linejoin:miter;stroke-opacity:1"
     id="text4178"
     transform="translate(999.93334)">
    <path
       sodipodi:nodetypes="cccccc"
       style="color:#000000;display:inline;overflow:visible;visibility:visible;fill:#ffcc01;fill-opacity:1;fill-rule:nonzero;stroke:none;stroke-width:1.04880881px;marker:none;enable-background:accumulate"
       d="m -999.93299,-0.1235 6599.56019,0 0,499.9667 0,499.9667 -6599.56019,0 z"
       id="rect9114-2-1-0-61-68-5-9"
       inkscape:connector-curvature="0" />
    <path
       inkscape:connector-curvature="0"
       id="path4044-2-7-6-82-1-8"
       d="M 3.06e-4,999.809 -499.96641,499.8424 -999.93299,-0.1243 l 0,999.9333 999.933296,0 z"
       style="color:#000000;display:inline;overflow:visible;visibility:visible;fill:#ff9f05;fill-opacity:1;fill-rule:nonzero;stroke:none;stroke-width:1px;marker:none;enable-background:accumulate" />
    <g
       id="g5093-4-9-3-5-6"
       transform="translate(-999.93339,4e-4)">
      <path
         style="opacity:1;fill:#ffffff;fill-opacity:1;stroke:none;stroke-width:5;stroke-linecap:square;stroke-linejoin:miter;stroke-miterlimit:4;stroke-dasharray:none;stroke-opacity:0.4"
         d="m 200,200 0,200 129.28906,0 L 600,670.71094 600,700 l -200,0 0,-100 -200,0 0,200 600,0 0,-200 -129.28906,0 L 400,329.28906 400,300 l 200,0 0,100 200,0 0,-200 z"
         transform="matrix(0.99993337,0,0,0.99993337,0,-0.12392363)"
         id="rect4150-9-9-7-7-9"
         inkscape:connector-curvature="0"
         sodipodi:nodetypes="ccccccccccccccccccc" />
    </g>
    <path
       style="display:inline;opacity:1;fill:#ffffff;fill-opacity:1;stroke:none;stroke-width:0.99993336;stroke-linecap:square;stroke-linejoin:miter;stroke-miterlimit:4;stroke-dasharray:none;stroke-opacity:1"
       d="m 1.4333333e-5,199.8632 0,599.96 199.986595666667,0 0,-249.9833 199.9867,0 0,249.9833 199.9871,0 0,-599.96 z M 199.98661,299.8565 l 199.9867,0 0,149.9901 -199.9867,0 z"
       id="rect5259-3-4-1-7"
       inkscape:connector-curvature="0"
       sodipodi:nodetypes="cccccccccccccc" />
    <path
       style="display:inline;opacity:1;fill:#ffffff;fill-opacity:1;stroke:none;stroke-width:0.99993336;stroke-linecap:square;stroke-linejoin:miter;stroke-miterlimit:4;stroke-dasharray:none;stroke-opacity:1"
       d="m 799.94675,199.8659 0,99.9933 199.987,0 0,499.9667 199.98605,0 0,-499.9667 199.987,0 0,-99.9933 z"
       id="rect5259-1-2-9-7-3"
       inkscape:connector-curvature="0"
       sodipodi:nodetypes="ccccccccc" />
    <path
       inkscape:connector-curvature="0"
       id="rect5259-1-0-3-3-5-4"
       d="m 2399.8406,199.8632 0,599.96 599.96,0 0,-99.9933 -399.974,0 0,-499.9667 z"
       style="display:inline;opacity:1;fill:#ffffff;fill-opacity:1;stroke:none;stroke-width:0.99993336;stroke-linecap:square;stroke-linejoin:miter;stroke-miterlimit:4;stroke-dasharray:none;stroke-opacity:1"
       sodipodi:nodetypes="ccccccc" />
    <path
       id="rect5259-1-0-6-5-0-3-6"
       d="m 3199.787,199.8632 c 0,199.9867 0,399.9734 0,599.9601 199.987,0 399.973,0 599.96,0 l 0,-99.9934 -399.973,0 0,-499.9667 z"
       style="display:inline;opacity:1;fill:#ffffff;fill-opacity:1;stroke:none;stroke-width:0.99993336;stroke-linecap:square;stroke-linejoin:miter;stroke-miterlimit:4;stroke-dasharray:none;stroke-opacity:1"
       inkscape:connector-curvature="0"
       sodipodi:nodetypes="ccccccc" />
    <path
       style="display:inline;opacity:1;fill:#ffffff;fill-opacity:1;stroke:none;stroke-width:0.99993336;stroke-linecap:square;stroke-linejoin:miter;stroke-miterlimit:4;stroke-dasharray:none;stroke-opacity:1"
       d="m 3999.7334,199.8632 0,99.9933 199.9867,0 0,399.9734 -199.9867,0 0,99.9933 599.96,0 0,-99.9933 -199.9867,0 0,-399.9734 199.9867,0 0,-99.9933 z"
       id="rect5259-1-94-5-9-2-9"
       inkscape:connector-curvature="0"
       sodipodi:nodetypes="ccccccccccccc" />
    <path
       style="display:inline;opacity:1;fill:#ffffff;fill-opacity:1;stroke:none;stroke-width:1;stroke-linecap:square;stroke-linejoin:miter;stroke-miterlimit:4;stroke-dasharray:none;stroke-opacity:1"
       d="m 4799.6798,199.8605 0,0 0,599.9581 449.97,0 149.99,-149.992 0,-299.9819 -149.99,-149.9881 z m 199.989,99.9933 149.9887,0 99.992,99.9934 0,199.9866 -99.992,99.9934 -149.9887,0 z"
       id="rect5514-1-1-16-4"
       inkscape:connector-curvature="0"
       sodipodi:nodetypes="ccccccccccccccc" />
    <path
       style="font-style:normal;font-weight:normal;font-size:125.68994904px;line-height:125%;font-family:Sans;letter-spacing:0px;word-spacing:0px;display:inline;opacity:1;fill:#ffffff;fill-opacity:1;stroke:none;stroke-width:0.9999333;stroke-linecap:square;stroke-linejoin:miter;stroke-miterlimit:4;stroke-dasharray:none;stroke-opacity:1"
       d="m 1599.8938,199.86318 0,599.96002 599.96,0 0,-99.99334 -399.9733,0 0,-149.99 399.9733,0 0,-99.99334 -399.9733,0 0,-149.99 399.9733,0 0,-99.99334 z"
       id="rect5259-1-0-3-3-5-4-5"
       inkscape:connector-curvature="0"
       sodipodi:nodetypes="ccccccccccccc" />
  </g>
</svg>
